<svg xmlns="http://www.w3.org/2000/svg" width="135" height="175" viewBox="0 0 135 175">
  <g fill="none" fill-rule="evenodd">
    <polygon fill="#F03E3E" points="0 175 135 175 135 0 0 0"/>
    <g transform="translate(0 44.161)">
      <path fill="#FEFEFE" d="M48.8504439 94.3042695C46.9604439 97.2880688 44.8704673 100.57151 40.6917757 103.55594 36.7130607 106.342291 31.6392056 108.232241 25.7679673 108.232241 15.8196028 108.232241 0 102.263381 0 81.0720975 0 65.9506065 8.75481308 53.2161548 26.066986 53.2161548 31.8379206 53.2161548 41.6878738 54.8083556 48.2530374 65.6515957L36.9117757 72.1188072C36.0159813 70.2282265 35.0217757 68.437947 32.5331075 66.6470366 31.0417991 65.6515957 29.1505374 64.856757 26.7634346 64.856757 18.5057243 64.856757 15.7199299 74.3077677 15.7199299 80.5750079 15.7199299 87.4396387 19.1031308 96.0945491 27.2605374 96.0945491 28.0572897 96.0945491 31.8379206 96.0945491 35.0217757 92.51399 36.3143692 91.0208287 36.8121028 89.8266781 37.3092056 88.3354093L48.8504439 94.3042695zM64.5694276 79.0825405C64.5694276 83.4598308 64.8678154 92.514053 74.3190771 92.514053 82.0790537 92.514053 83.8700117 86.4436301 83.8700117 79.0825405 83.8700117 76.5952 83.6712967 71.4218093 81.9800117 68.9350996 80.7851986 67.044519 78.0006659 64.9545978 73.6226285 65.1545692 66.3597547 65.4529491 64.5694276 71.7201892 64.5694276 79.0825405zM83.9690537 99.6758022C80.9839136 101.666684 77.3029556 104.053092 70.2394276 104.053092 65.9616939 104.053092 61.7830023 102.959243 58.4004322 100.670612 51.4359463 96.1936516 48.7498248 88.1361319 48.7498248 79.1822108 48.7498248 68.7357591 53.6243341 53.7133075 70.8368341 53.7133075 78.7955257 53.7133075 82.4764836 57.1948272 84.7651752 59.383157L84.7651752 54.5087771 99.0922079 54.5087771 99.0922079 104.451773C98.893493 110.122254 98.6941472 116.788175 91.1316238 121.166096 85.8590537 124.349236 78.1003388 125.145336 73.4239136 125.145336 63.0768575 125.145336 56.3117173 121.563515 53.5246612 118.679386 49.4469042 114.599845 49.5459463 109.327415 49.5459463 106.541064L65.3642874 106.541064C65.5630023 108.829064 65.762979 112.112505 69.8419977 114.002454 70.8368341 114.500175 72.3294042 114.997265 74.7171379 114.997265 83.9690537 114.997265 83.9690537 109.526125 83.9690537 105.246612L83.9690537 99.6758022zM109.727874 38.9823599L124.95007 38.9823599 124.95007 54.5101018 134.442336 54.5101018 134.442336 65.1546323 124.851028 65.1546323 124.851028 88.5336143C124.750724 91.7173849 124.750724 94.4034351 128.829112 94.4034351L134.301028 94.2047254 134.301028 106.143077C131.0175 106.641428 129.028458 106.939177 126.244556 106.939177 120.968832 106.939177 115.199159 106.641428 111.916262 101.864195 109.827547 98.7807254 109.727874 95.0998652 109.727874 90.1258151L109.727874 65.0555928 102.16535 65.0555928 102.16535 54.4968545 109.727874 54.4968545 109.727874 38.9823599z"/>
      <path fill="#FFD300" d="M55.1764556 12.9318996L55.1764556 12.9394695C55.2313388 12.8953118 55.2174603 12.9041434 55.1764556 12.9318996M54.8098738 13.3976373C54.8010421 13.4752287 54.8912523 13.3888057 54.8098738 13.3976373M7.61570327 48.4105348C7.61633411 48.4099039 7.62011916 48.4029649 7.62011916 48.4029649 7.60056308 48.3720545 7.59110047 48.3632229 7.61570327 48.4105348M100.204886 49.9306323C100.202362 49.9293706 100.20047 49.9287398 100.20047 49.9287398 100.187222 49.9287398 100.184699 49.9287398 100.204886 49.9306323M100.352755 49.9293706C100.350231 49.9293706 100.350231 49.9306323 100.348339 49.9306323 100.367895 49.9306323 100.36411 49.9306323 100.352755 49.9293706"/>
      <path fill="#FAB005" d="M32.5188505,27.8511484 C32.5863505,27.6436072 32.6229393,27.4732846 32.6633131,27.1282237 L32.8796916,27.055048 C32.882215,27.055048 33.1250888,27.1780588 33.2417944,27.1282237 C33.2714439,27.1137147 33.2241308,26.9446538 33.2417944,26.9105892 C33.2550421,26.8796789 33.5111636,26.7976717 33.5313505,26.7654996 C33.5774019,26.6860158 33.5622617,26.4078222 33.5313505,26.4765821 L34.2277991,25.2477362 C34.2366308,25.2212416 34.5779159,24.7695713 34.5867477,24.7456 L34.7633832,24.3765677 C35.125486,23.8952487 34.7829393,23.7552057 34.9797617,23.1458294 C35.0327523,22.9792918 35.4125187,22.8140158 35.558243,22.712453 L35.7039673,22.8569118 C35.6263738,22.3509907 35.6131262,22.1604817 35.9928925,21.9163527 C35.9979393,21.940324 36.0572383,22.2733993 36.0660701,22.2784459 C36.2124252,22.3509907 36.2893879,22.1724674 36.3556262,22.2052703 C36.3751822,21.9062595 36.5764206,21.5712918 36.6678925,21.4344029 C36.6546449,21.4520659 36.6445514,21.4653133 36.622472,21.4943312 C37.1889673,20.75879 37.0886636,20.2711627 37.1511168,19.8163384 C37.5220514,19.8163384 37.4394112,19.9778294 37.5851355,19.4536143 C38.3345748,19.6762953 38.2942009,19.3823312 38.0204159,18.8026036 C38.3093411,18.664453 38.0929626,18.4405104 38.0929626,18.4405104 C38.313757,18.4026609 38.4973318,18.6423742 38.7446215,18.5862308 C38.8524953,18.5591054 38.7446215,18.3692272 38.7446215,18.3692272 C38.7036168,18.5313491 38.5988972,18.2241376 38.5988972,18.2241376 C38.5988972,18.2241376 38.8865607,17.7894996 38.8890841,17.7894996 C38.9433364,17.8216717 39.0026355,18.0191197 39.0335467,18.0784172 C39.0467944,18.0695857 39.3231028,17.8620444 39.3231028,17.8620444 C39.3268879,17.8443814 39.5401121,17.5731269 39.5401121,17.5731269 C39.651771,17.0880229 39.6826822,16.58841 39.7577523,16.2692129 C39.7577523,16.2692129 39.8637336,16.4294423 39.9028458,16.4136717 C39.9589907,16.5625462 40.0428925,16.7240373 40.1198551,16.9214853 C40.1696916,16.9031914 40.3343411,16.8457864 40.3362336,16.8489405 C40.4359065,16.4250265 40.4756495,15.9840803 40.5538738,15.4018294 C40.7071682,15.4049835 40.6440841,15.2113204 40.8440607,15.2567398 C40.8440607,15.2567398 41.0900888,15.4466179 41.1336168,15.4731125 C41.164528,15.3740731 41.124785,15.2901735 41.2055327,15.1110194 C41.2724019,15.1110194 41.5241075,15.1450839 41.5676355,15.1110194 C41.6061168,15.0756932 41.5676355,14.8132703 41.5676355,14.7501878 C41.7871682,14.6662882 41.6856028,14.810747 41.7846449,14.6044674 L41.2780794,14.314919 C41.5310467,14.174876 41.8887336,14.1250409 42.1467477,13.9528258 C42.4205327,13.765471 42.4646916,13.1989907 42.725229,13.0128975 C42.8955561,12.885471 43.1031028,12.9693706 43.304972,12.8678079 C43.5730794,12.7265032 43.709972,12.2691556 43.884715,12.1436215 C44.1484065,11.9468043 44.4827523,12.0231341 44.6795748,11.7815283 C44.8694579,11.5411842 44.6638037,11.3462595 44.8984766,11.1298867 C45.0833131,10.9513634 45.302215,11.0485104 45.5495047,10.9122523 C45.929271,10.6984029 46.1147383,10.0152201 46.6345514,9.68277563 C47.0168411,9.43549247 46.739271,9.6354638 46.8521916,9.17622366 C46.8521916,9.17622366 47.0244112,9.03050323 46.9241075,9.03050323 C47.2187103,8.86775054 47.4395047,8.9806681 47.6483131,8.88604444 C47.7902523,8.81854624 47.8129626,8.48736344 47.9372383,8.37886165 C47.994014,8.32713405 48.1574019,8.41103369 48.2280561,8.37886165 C48.2766308,8.35489032 48.2501355,8.12842437 48.299972,8.08994409 C48.3945981,8.00604444 48.5687103,8.09625233 48.6614439,8.01676846 C48.7731028,7.91709821 48.7402991,7.65215197 48.8790841,7.58276129 C49.0645514,7.48561434 49.2998551,7.59222366 49.4575654,7.51021649 C49.5944579,7.43830251 50.0253224,6.93868961 50.2549486,6.78666093 C50.2379159,6.75511971 50.1489673,6.664281 50.181771,6.64157133 C50.2568411,6.58479713 50.459972,6.68005161 50.5438738,6.64157133 C50.6366075,6.59741362 50.7318645,6.20756416 50.8334299,6.13565018 C51.0718879,5.95901935 51.3740607,6.01768602 51.6301822,5.84547097 C51.7386869,5.76914122 51.6831729,5.53068961 51.8465607,5.48337778 C51.9462336,5.45246738 52.1203458,5.53068961 52.2086636,5.48337778 C52.3720514,5.39064659 52.3701589,5.08595842 52.4982196,4.97619498 C52.9858598,4.56363584 53.3580561,4.97177921 53.9466308,4.25263943 C54.3648785,4.37249606 54.2178925,4.39142079 54.6708364,4.25263943 C55.3035701,5.13516272 54.6336168,6.08518423 54.3087336,6.93175054 C54.1611168,7.30961434 54.136514,7.61367168 53.9466308,7.94359283 C53.8027991,8.18898351 53.4848551,8.41103369 53.3668879,8.66841004 C53.1814206,9.06898351 53.2199019,9.33203728 53.004785,9.68277563 C52.8988037,9.85183656 52.6060935,10.0133276 52.4982196,10.1893276 C52.3878224,10.3628043 52.4099019,10.6069333 52.2818411,10.7677935 C52.1544112,10.9191914 51.7992477,10.9532559 51.7020981,11.1298867 C51.6282897,11.2579441 51.7178692,11.4945032 51.6301822,11.6370695 C51.5191542,11.8111771 51.3589206,11.649686 51.1955327,11.7815283 C51.0876589,11.865428 51.1974252,12.0079943 51.1223551,12.1436215 C51.0826121,12.2111197 50.8788505,12.2249978 50.8334299,12.2880803 C50.6788738,12.4956215 50.702215,12.7340731 50.5438738,12.9397219 C50.4151822,13.1005821 49.9508832,13.2633348 49.8928458,13.4462738 C49.844271,13.5819011 49.9212336,13.7446538 49.8928458,13.8809118 C49.7956963,13.8758652 49.5193879,13.8039513 49.3850187,13.8809118 C49.2998551,13.9275928 49.304271,14.2240803 49.2411869,14.314919 C49.1863037,14.386833 48.6122383,14.7766824 48.5901589,14.8221018 C48.4198318,15.1330982 48.5649252,15.3715498 48.299972,15.6175713 C48.0488972,15.848453 47.9738271,15.6219871 47.720229,15.7626609 C47.4464439,15.9127971 47.3379393,16.5751627 47.0685701,16.7757649 C46.8477757,16.9391484 46.4945047,16.8842667 46.2724486,17.0646824 C46.0529159,17.2394208 46.0705794,17.7699441 45.8384299,17.9352201 C45.7185701,18.0153348 45.5097617,17.9371125 45.4037804,18.0071341 C45.119271,18.1900731 45.0505093,18.776109 44.7527523,18.948324 C44.472028,19.1066609 44.1692243,18.9363384 43.884715,19.0927828 C43.7982897,19.1382022 43.8140607,19.4163957 43.7389907,19.4536143 C43.6771682,19.4838939 43.4172617,19.3999943 43.3768879,19.4536143 C43.3182196,19.5274208 43.4065374,19.7280229 43.3768879,19.8163384 C43.372472,19.8251699 42.8867243,20.3140588 42.8709533,20.3228903 C42.5574252,20.4887971 42.3700654,20.3443384 42.0010234,20.5405247 C41.8906262,20.5991914 41.7228224,20.8571986 41.6389206,20.9026179 C41.3058364,21.0773563 41.0427757,20.9701161 40.8440607,21.2647111 C40.6573318,21.5315498 40.6787804,21.8166824 40.4819579,22.0608115 C40.3702991,22.1920229 40.064972,22.2759226 39.9741308,22.4229047 C39.9318645,22.4878796 39.9545748,22.6714495 39.9028458,22.712453 C39.3319346,23.1306896 39.3571682,22.4336287 39.1060935,23.3634638 C39.0493178,23.3577864 38.7698551,23.3148903 38.7402056,23.2972272 C38.6550421,23.4177147 38.4197383,23.6864459 38.3093411,23.7968401 C37.8778458,24.2276932 37.4684299,24.4629907 37.1511168,25.0282093 C37.4463505,24.8812272 37.6204626,24.842747 37.8753224,24.6661161 L37.6576822,24.9562953 L37.5851355,25.0282093 C37.5542243,25.0446108 37.4924019,25.3474065 37.4419346,25.3903025 C37.1769813,25.5946896 36.7461168,25.5379154 36.5000888,25.7523957 C36.4786402,25.7675355 36.5000888,25.9353348 36.5000888,25.9700301 C36.1013972,26.1731556 35.7878692,26.6052703 35.4144112,26.7654996 C34.9816542,26.9465462 35.6087103,26.3668186 35.8484299,26.2595785 L35.9203458,25.9700301 C35.6844112,26.1189047 34.8605327,26.3131986 34.7633832,26.4765821 C34.597472,26.7478366 34.8094346,26.8285821 34.6902056,27.055048 C34.6485701,27.1332703 34.5072617,27.1742738 34.4385,27.1906753 C34.4340841,27.1976143 34.4233598,27.2007685 34.4012804,27.1995068 C34.4000187,27.1995068 34.414528,27.1963527 34.4385,27.1906753 C34.4631028,27.1578724 34.2214907,27.0430624 34.0391776,27.1282237 C33.9571682,27.1641806 33.9489673,27.3786609 33.8934533,27.4171412 C33.4979159,27.680195 33.2462103,27.7565247 32.6633131,27.996238 C32.6633131,28.0467039 32.6923318,28.333729 32.6633131,28.358962 C32.616,28.3223742 32.5024486,28.1911627 32.4463037,28.2145032 C32.4797383,28.0965391 32.4715374,27.9880373 32.5188505,27.8511484 Z M133.678009,42.3468616 C133.510836,42.3538007 133.353757,42.3676789 133.214341,42.4011125 C133.172706,42.4112057 133.113407,42.6023455 133.069248,42.618747 C132.838991,42.7007541 131.949505,42.8256573 131.839107,42.8363814 C131.282706,42.8830624 130.788126,42.618747 130.101771,42.618747 C130.150346,42.9404674 130.109972,43.0868186 130.317519,43.4148473 C130.207121,43.3839369 129.986327,43.4577434 129.882869,43.4148473 C129.7485,43.3561806 129.719481,42.8710767 129.23121,43.1984746 C129.174435,43.2338007 129.15614,43.4678366 129.088009,43.4880229 C128.93093,43.5290265 129.076654,43.4634208 129.015463,43.4148473 L127.42322,43.1984746 L127.277495,43.0527541 C127.133664,43.064109 127.116,43.1038509 127.061117,43.1259297 C126.785439,43.2249692 127.001187,43.2596645 126.844107,43.4148473 L126.699014,43.4148473 C126.6435,43.3839369 126.699014,43.1259297 126.699014,43.1259297 C126.442893,43.064109 126.276981,43.3719513 126.119902,43.4148473 C125.866304,43.4785606 125.603874,43.3069763 125.177425,43.3435642 C124.609668,43.3883527 123.834995,43.6179728 123.369435,43.8501161 C123.250206,43.7548616 123.143593,43.670962 123.006701,43.5605677 C122.976421,43.5870624 122.498874,44.2122093 122.498874,44.2122093 C122.371444,44.267091 122.190393,44.1049692 122.355673,44.1390337 C122.348734,44.0891986 122.470486,43.7043957 122.355673,43.7043957 C122.20364,43.7018724 122.20364,43.897428 122.137402,43.9933133 C121.869925,43.8501161 121.580369,43.7182738 121.269364,43.9933133 C121.229621,44.0292703 121.251701,44.1932846 121.196187,44.2122093 C120.880766,44.306833 121.23593,43.8179441 120.834084,43.9220301 C120.630953,43.9750194 120.423407,44.2727685 120.255603,44.3566681 C119.971093,44.4948186 119.712449,44.4922953 119.388196,44.5743025 C119.392612,44.5572703 119.520673,44.378747 119.45885,44.3566681 C119.401444,44.3333276 119.297355,44.3907326 119.242472,44.3566681 C119.107472,44.525729 119.085393,44.655048 118.952916,44.8632201 C118.79836,44.8291556 118.599645,44.8632201 118.445089,44.8632201 C118.453921,44.7200229 118.445089,44.5686251 118.445089,44.4285821 C118.687963,44.4374136 118.28864,44.3093563 118.22871,44.2841233 C118.060907,44.6329692 118.098757,44.5711484 118.155533,44.9351341 C118.107589,44.9351341 117.975112,44.9559513 117.939785,44.9351341 C117.939785,44.9351341 117.526584,44.9925391 117.288126,45.0076789 C117.544248,44.8613276 117.370136,44.902962 117.431958,44.7187613 L117.650229,44.5743025 C117.635089,44.5711484 117.402939,44.4418294 117.361304,44.4285821 C117.263523,44.716238 117.13357,45.2026036 116.563921,45.1527685 C115.910369,45.0941018 116.603664,44.5850265 115.696514,45.0076789 L115.696514,45.441686 C115.680743,45.4467326 114.682752,45.2972272 114.682752,45.2972272 C114.60579,45.2322523 114.641117,45.0865319 114.537028,45.0076789 C114.400136,45.0985176 114.197005,45.4675498 114.031093,45.5148616 C113.494879,45.6612129 113.172519,45.3855427 112.726514,45.5148616 C112.701911,45.5192774 112.788336,45.6359799 112.799061,45.6593204 C112.596561,45.725557 112.424341,45.8662308 112.148033,45.8037792 C112.042051,45.7798079 112.148033,45.5148616 112.148033,45.5148616 C112.037636,45.4694423 111.441491,45.4372703 111.423827,45.441686 L111.423827,45.5148616 C111.423827,45.5148616 111.008734,45.7047398 110.772168,45.7312344 L110.699621,46.0945892 C110.485136,46.2024602 110.105369,45.8788473 109.831584,45.8769548 C109.728126,45.8744315 109.615206,46.0945892 109.615206,46.0945892 C108.659481,46.3652129 107.956724,46.2674351 107.007939,46.3822452 C106.793453,46.408109 106.157565,46.713428 105.923523,46.7443384 C105.479411,46.7998509 104.932472,46.8377004 104.691491,46.7443384 C104.52621,46.6793634 104.60128,46.4264029 104.185556,46.4554208 C103.872028,46.4749763 103.607075,46.8326538 103.388804,46.8906896 C103.057612,46.9739584 102.507519,47.0174853 102.302495,47.0351484 C101.858383,47.0717362 101.626864,46.9171842 101.361911,46.7443384 C101.331,46.7746179 101.288734,47.1064315 101.288734,47.1064315 C101.09885,47.1430194 100.878056,46.8440086 100.564528,46.8906896 C100.560112,46.8906896 100.379061,47.0982308 100.34815,47.1064315 C100.005603,47.1972703 99.4145047,47.2502595 99.1186402,47.252152 C98.4556262,47.252152 97.8355093,47.1064315 97.1642944,47.1796072 C96.3896215,47.259091 96.0231028,47.568195 95.2806028,47.6136143 C95.0888271,47.6237075 94.3999486,47.4382452 94.0510935,47.4691556 C93.7968645,47.4887111 93.5476822,47.8653133 93.3268879,47.9025319 C92.8146449,47.9876932 92.9206262,47.611091 92.4588505,47.6861591 C92.377472,47.697514 92.4058598,47.8848688 92.3863037,47.9750767 C91.8185467,47.9233491 90.7322383,48.2658867 90.4306963,47.7593348 C90.3770748,47.7896143 90.3549953,48.009772 90.4306963,48.0488832 C89.8295047,48.0488832 89.4017944,48.2173133 88.911,48.1933419 C88.5684533,48.1731556 88.1773318,48.1731556 87.6808598,48.0488832 C87.5628925,48.0186036 87.4405093,47.7669047 87.3900421,47.7593348 C86.9200654,47.6565104 86.3592477,47.9731842 85.8703458,47.9750767 L85.1461402,47.9750767 C85.1461402,47.9750767 85.0313271,47.6451556 84.9297617,47.6136143 C84.6931963,47.5372846 84.404271,47.7612272 84.2055561,47.7593348 C84.0863271,47.7561806 83.9702523,47.5505319 83.916,47.5417004 C83.1558364,47.3959799 83.4327757,47.9485821 82.9028692,47.9025319 C82.9028692,47.9025319 82.0638505,47.5461161 82.4675888,47.6136143 C82.4606495,47.5959513 82.3262804,47.4231054 82.3956729,47.3959799 C82.0966542,47.4401376 81.9730093,47.4231054 81.6720981,47.4691556 C81.6739907,47.4842953 81.7446449,47.8306179 81.7446449,47.8306179 C81.5699019,47.8571125 81.1649019,47.5417004 81.1649019,47.5417004 C80.7334065,47.4596932 81.0961402,47.7063455 80.7296215,47.6861591 C80.2760467,47.6565104 79.8773551,47.2338581 79.5726589,47.0351484 C79.4363972,47.1253563 79.3871916,47.1575283 79.2111869,47.252152 C79.1089907,46.9872057 78.9525421,46.7525391 78.8484533,46.5279656 C78.3986636,46.6339441 78.0542243,46.4465892 77.5457664,46.3822452 C77.5230561,46.2920373 77.5545981,46.1116215 77.4732196,46.0945892 C77.1495981,46.0195211 77.2234065,46.2939297 76.8947383,46.1658724 C76.8083131,46.1318079 76.6064439,45.7545749 76.5326355,45.7312344 C76.4020514,45.6914925 76.236771,45.840367 76.0248084,45.8037792 C75.8059065,45.7652989 75.9055794,45.5236932 75.8809766,45.5148616 C75.7806729,45.4738581 75.6116075,45.5646968 75.5188738,45.5148616 C75.4867009,45.4971986 75.5125654,45.2518079 75.4463271,45.2253133 C75.3863972,45.2000803 75.1094579,45.4044674 74.8678458,45.0802237 C74.8148551,45.0127254 74.8299953,44.9691986 74.7946682,44.8632201 C74.7946682,44.8632201 74.7309533,44.6891125 74.6502056,44.5743025 C74.7044579,44.6733419 74.779528,44.3932559 74.6502056,44.2841233 C74.4149019,44.0828903 74.2691776,44.2210409 73.997285,44.2122093 C74.0616308,44.1592201 73.9360935,44.026747 73.926,43.9933133 C73.9935,43.9668186 74.0685701,43.9933133 74.1430093,43.9933133 C74.0275654,43.4772989 73.8673318,43.5233491 73.7815374,43.3435642 C73.5273084,42.8155642 73.4579159,42.0396502 73.4188037,41.533729 C73.2743411,41.5236358 73.1298785,41.4788473 72.9841542,41.4611842 C73.0813037,41.0984602 73.112215,41.0063599 73.346257,40.8095427 C73.2402757,40.477729 72.7456963,39.8141018 72.8403224,39.4337147 C72.8870047,39.2400516 73.0680561,39.2596072 73.2030561,39.1447971 C72.969014,38.6489692 72.9841542,38.5240659 73.346257,38.2748903 C73.322285,38.1985606 73.1771916,37.9367685 73.2030561,37.8421448 C73.2118879,37.7979871 73.5430794,37.5494423 73.5638972,37.4800516 C73.6269813,37.2390767 73.4579159,37.1898724 73.4919813,36.9734996 C73.5077523,36.857428 73.7235,36.501643 73.7815374,36.3205964 C73.7152991,36.2619297 73.2743411,35.6695857 73.2743411,35.6695857 C73.1500654,35.6178581 72.8844813,35.7332989 72.7677757,35.6695857 C72.7520047,35.6607541 72.7766075,35.4797075 72.7677757,35.4532129 C72.6510701,35.1491556 72.2845514,35.2147613 71.9716542,35.2355785 C71.9155093,35.1384315 71.8536869,34.8368975 71.754014,34.8022022 C71.5603458,34.730919 71.6770514,35.4387039 71.6814673,35.4532129 C71.1118178,35.5358509 70.8380327,35.5901018 70.523243,35.8865892 C69.9517009,36.4202667 69.903757,37.7582452 69.6520514,38.5164961 L69.0029159,39.2892559 C68.9511869,39.3195355 68.7821215,39.3845104 68.7139907,39.4337147 C68.7758131,39.8569978 68.8067243,40.1112201 68.4963505,40.301729 C67.847215,40.6978867 67.9267009,40.1118509 67.8453224,40.0853563 C67.7500654,40.0544459 67.6409299,40.1263599 67.5557664,40.0853563 C67.5557664,40.0853563 67.4396916,40.3206538 67.4113037,40.3749047 C67.5305327,40.4543885 67.5627056,40.4045534 67.7008598,40.4474495 C67.6825654,40.4928688 67.6276822,40.6638222 67.6276822,40.6638222 C67.5601822,40.6171412 67.4113037,40.6978867 67.3381262,40.6638222 C67.307215,40.6486824 67.2838738,40.4360946 67.2655794,40.3749047 C67.2214206,40.3900444 66.8921215,40.5042237 66.9760234,40.5199943 C66.834715,40.6524674 66.6183364,41.0126681 66.4707196,41.0984602 C66.3136402,41.1848832 66.3571682,40.9905892 66.1799019,41.0259154 C65.8411402,41.0946753 65.6070981,41.8207541 65.5288738,42.1853706 C65.4109065,42.1456287 65.2071449,42.2314208 65.0948551,42.1853706 C65.0784533,42.1784315 65.0948551,41.9898151 65.0948551,41.9677362 C65.0948551,41.9677362 65.0740374,41.5867183 64.587028,41.677557 C64.5283598,41.6863885 64.2842243,41.9425032 64.2249252,41.9677362 C64.0350421,42.0371269 63.7391776,41.9399799 63.5019813,42.0396502 C63.2975888,42.1210265 63.0490374,42.6124387 62.8496916,42.7638366 C62.5229159,42.1235498 62.3544813,42.4149907 61.9816542,42.7638366 C61.1867944,42.1285964 59.7976822,43.0155355 58.941,42.4011125 C58.7038037,42.2314208 58.7246215,41.4611842 58.7246215,41.4611842 C58.714528,41.4132416 58.7536402,41.1628043 58.6520748,41.242919 C58.9656028,40.9817577 58.9214439,40.725643 59.1580093,40.3749047 C59.234972,40.2556789 59.5194813,40.1970122 59.5926589,40.0853563 C59.707472,39.9024172 59.6223084,39.6778437 59.7371215,39.5068903 C59.7781262,39.4425462 59.9976589,39.4318222 60.0273084,39.3611699 C60.0739907,39.2400516 59.9900888,39.0545892 60.0273084,38.9271627 C60.0834533,38.9315785 60.2739673,39.0198939 60.3894112,39.0716215 C60.7098785,38.6149047 61.0480093,38.5398366 61.4750888,38.2029763 C61.7387804,37.9910194 61.9406495,37.625772 62.1980327,37.406876 C62.5929393,37.0649692 63.0591308,36.8984315 63.5019813,36.6101448 C63.7322383,36.458747 63.9177056,36.0998079 64.1530093,35.9591341 C64.2306028,35.912453 64.352986,35.988152 64.4431963,35.9591341 C64.7415841,35.855048 65.0462804,35.4431197 65.3112336,35.3074925 C66.0329159,34.9296287 66.691514,34.8589763 67.5557664,34.5833061 C68.0194346,34.4331699 68.9423551,33.9638366 69.5113738,33.8597505 C70.1800654,33.7354781 70.9307664,33.8080229 71.3925421,33.7152918 C71.5799019,33.6768115 71.7432897,33.448453 72.0435701,33.4976573 C72.147028,33.5146896 72.2025421,33.7720659 72.2612103,33.7872057 C72.3728692,33.8124387 72.6233131,33.6339154 72.7677757,33.642747 C73.0440841,33.6591484 73.4036636,34.0199799 73.6358131,34.0773849 C73.7834299,34.1114495 73.9890841,33.9922237 74.2149252,34.0773849 L74.2149252,34.1492989 C74.4060701,34.2514925 74.5782897,34.3404387 74.7946682,34.4394781 C74.7946682,34.4596645 74.779528,34.6514351 74.7946682,34.6558509 C75.1832664,34.7782308 75.4027991,34.4880516 76.0248084,34.7290265 C75.9737103,34.6968545 75.788243,34.461557 75.7352523,34.4394781 C75.6582897,34.5523957 75.6627056,34.2937577 75.6627056,34.2937577 C75.7264206,34.235091 76.0046215,34.0773849 76.0248084,34.0048401 C76.0885234,33.7443097 75.9011636,33.0365247 75.8084299,32.701557 C75.6860467,32.2694423 75.0110467,31.7609978 75.0110467,31.7609978 C75.0110467,31.7130552 75.0400654,31.4960516 75.0110467,31.4708186 C74.9517477,31.4146753 74.7265374,31.5048832 74.6502056,31.4708186 C74.5410701,31.4235068 74.6502056,31.2424602 74.5782897,31.1819011 C74.4325654,31.0588903 73.5342477,30.4936717 73.4188037,30.4577147 C72.8535701,30.2766681 72.4719112,30.4980875 71.8271916,30.4577147 C71.5843178,30.4419441 71.2518645,30.1725821 70.9572617,30.1681663 C70.8310935,30.1662738 70.551,30.3738151 70.4513271,30.3858007 C69.7725421,30.4577147 69.1259299,30.3876932 68.3518879,30.6021735 C68.2326589,30.6343455 68.0623318,30.8671197 67.989785,30.891091 C67.6485,30.9964387 67.3583131,30.8450409 67.0492009,30.9642667 C66.8965374,31.0216717 66.7817243,31.3673634 66.9760234,31.3995355 C66.3609533,31.6001376 66.1016776,31.8474208 65.4569579,32.0505462 C65.4279393,31.947091 65.4790374,31.7925391 65.3844112,31.7609978 L65.2386869,31.7609978 C65.1535234,31.9754781 64.825486,32.6567685 64.587028,32.701557 C64.5132196,32.7154351 63.7063738,32.396238 63.5738972,32.3394638 C63.6704159,32.525557 63.693757,32.6138724 63.7921682,32.7741018 C63.1935,32.9690265 62.4737103,33.0775283 62.0542009,32.8466466 C61.9860701,33.4459297 62.1286402,33.6976287 61.9816542,34.2937577 C61.386771,34.1833634 60.5477523,34.9618007 60.3894112,33.9329262 C60.318757,34.3082667 60.2594579,34.3839656 59.8102991,34.5113921 C59.766771,35.1106753 59.7560467,36.0159082 59.1580093,36.2493133 C59.0905093,36.2745462 58.9233364,36.2013706 58.8684533,36.2493133 C58.508243,36.5571556 58.9523551,36.6353778 58.3625187,36.5382308 C58.337285,36.6069907 58.3417009,36.7451412 58.289972,36.7558652 C58.289972,36.7558652 58.4798551,36.8984315 58.4344346,36.900324 C58.0489907,36.911048 58.1795748,36.6013133 58.0004159,36.4663168 C57.9146215,36.501643 57.7335701,36.4663168 57.6383131,36.4663168 L57.5657664,36.8271484 C57.3493879,36.9205104 56.0025421,36.7754208 55.8277991,36.7558652 C55.359715,36.699091 54.3913738,36.7867756 53.8740841,36.9734996 C53.8305561,36.9848545 53.7699953,37.1785176 53.7289907,37.1898724 C53.5315374,37.2416 53.4507897,37.0965104 53.1498785,37.1898724 L53.1498785,37.2624172 C52.9353925,37.3728115 52.2793178,37.4333706 52.1361168,37.6232487 C52.0843879,37.6901161 52.1203458,37.8686394 52.0629393,37.9140588 C51.8730561,38.0585176 51.6207196,38.00679 51.4119112,38.1310624 C51.404972,38.1335857 51.3399953,38.3486968 51.3399953,38.3486968 C50.8485701,38.635091 50.0095514,38.7353921 49.6032897,39.0716215 C49.502986,39.1536287 49.4468411,39.3952344 49.3850187,39.5068903 C48.5920514,39.3025032 48.8538505,39.6191771 48.371257,39.7964387 C48.0665607,39.9043097 47.7246449,39.809686 47.358757,40.0121806 C47.3227991,40.0317362 47.251514,40.2184602 47.2142944,40.2298151 C46.7222383,40.3547183 46.5121682,40.2506323 45.9835234,40.4474495 L46.0554393,41.0259154 L45.8384299,40.9540014 C45.8384299,40.9540014 45.7728224,40.5515355 45.7658832,40.5199943 C45.7658832,40.5199943 45.552028,40.5900158 45.5495047,40.5919082 C45.4939907,41.1211699 45.6466542,41.1438796 45.1142243,41.0259154 C45.127472,41.0719656 45.2157897,41.304109 45.1874019,41.3167254 C44.8278224,41.4227039 44.3231495,41.1596502 44.174271,41.1716358 C44.0493645,41.1785749 44.0367477,41.3596215 43.9566308,41.3880086 C43.7547617,41.4542452 43.5163037,41.3381735 43.304972,41.3880086 C43.225486,41.4031484 42.9220514,41.6662022 42.7984065,41.677557 C42.6324953,41.6914351 42.5246215,41.5583312 42.2905794,41.605643 C41.7228224,41.7160373 41.0238505,42.2869333 40.4094112,42.4011125 C40.0738037,42.4635642 39.7167477,42.3090122 39.2499252,42.4011125 C38.8241075,42.4831197 38.1680327,42.9038796 37.8034065,42.9082953 C37.5851355,42.9108186 37.5479159,42.7304029 37.2955794,42.7638366 C37.2829626,42.7638366 37.1170514,42.9688545 37.0792009,42.9808401 C36.8413738,43.0439226 35.6863037,43.0111197 35.4863271,42.9808401 C35.4478458,42.9745319 35.2358832,42.765729 35.1974019,42.7638366 C34.7791542,42.7203097 34.5312336,42.9877792 34.1104626,42.9808401 C34.045486,42.977686 33.747729,42.7758222 33.6770748,42.7638366 C33.1137336,42.6660588 32.9326822,42.7758222 32.3012103,42.618747 C32.3012103,42.5966681 32.3144579,42.4036358 32.3012103,42.4011125 C32.091771,42.3361376 31.790229,42.4421161 31.5770047,42.4011125 C31.0937804,42.3064889 30.6837336,41.8087685 30.3474953,41.533729 C30.2585467,41.4611842 30.0371215,41.4201806 29.9847617,41.3167254 C29.8787804,41.1079226 30.0163037,40.8814566 29.912215,40.6638222 C29.8371449,40.5105319 29.4441308,40.2171986 29.3337336,39.9408975 C29.455486,39.8519513 29.3337336,39.5788043 29.3337336,39.5788043 C29.3905093,39.5788043 29.4062804,38.8552487 29.4062804,38.8552487 C29.7065607,38.2282093 29.4460234,37.8598079 29.9847617,37.6232487 C29.8989673,37.256109 29.8768879,37.2416 29.9847617,36.8271484 C29.8857196,36.8511197 29.8680561,36.9306036 29.6958364,36.900324 C29.765229,36.6656573 30.265486,35.5724387 30.4187804,35.4532129 C30.5171916,35.373729 30.7468178,35.460152 30.8527991,35.3806681 L30.9259766,35.0179441 C31.6117009,34.7851699 31.5530327,34.4274925 32.0848318,34.0048401 C32.2198318,33.8944459 32.3762804,33.9726681 32.5188505,33.8597505 C32.6570047,33.7462022 32.6481729,33.448453 32.8077757,33.3531986 C33.0474953,33.2062165 33.314972,33.2692989 33.5313505,33.1368258 C33.7893645,32.9734423 33.7584533,32.6864172 33.966,32.4845534 C34.1949953,32.2580875 34.6334299,32.2360086 34.9797617,32.1224602 C34.9797617,31.9666466 34.9469579,31.7679369 34.9797617,31.6159082 C35.2598551,31.5313778 35.6263738,31.5282237 35.7039673,31.4708186 C35.7279393,31.4512631 35.7039673,31.2229047 35.7039673,31.1819011 C36.149972,30.9358796 36.3928458,30.7453706 36.8621916,30.5302595 C36.8432664,30.4804244 36.7902757,30.3126251 36.7902757,30.3126251 C37.0091776,30.0237075 37.499972,30.0798509 37.1511168,29.8060731 C37.0621682,29.7341591 37.0792009,29.5884387 37.0792009,29.5884387 C37.4331028,29.4824602 37.6444346,29.4395642 37.9472383,29.2995211 C37.9384065,29.2837505 37.8589206,29.1594781 37.8753224,29.1544315 C38.174972,29.052238 38.4771449,29.2112057 38.8171682,28.937428 C39.0114673,28.7771986 39.099785,28.4239369 39.3231028,28.2857864 C39.3956495,28.2384746 39.5634533,28.2750624 39.612028,28.2145032 C39.7167477,28.0782452 39.6246449,27.8744889 39.7577523,27.7792344 C40.1198551,27.5155498 40.5513505,27.5123957 40.9159766,27.2726824 C41.1601121,27.1067756 41.3544112,26.8651699 41.6389206,26.6942165 C41.621257,26.6431197 41.5676355,26.4765821 41.5676355,26.4765821 C41.7549953,26.2955355 41.9814673,26.4059297 42.2186636,26.2595785 C42.3025654,26.2053276 42.1467477,26.1144889 42.1467477,26.1144889 C42.399715,25.9378581 42.4407196,25.8943312 42.5807664,25.6073061 C42.7643411,25.6073061 42.7706495,25.7259011 42.9416075,25.6073061 C42.9416075,25.6054136 42.7233364,25.3385749 43.014785,25.2458437 C43.8979626,24.9607111 42.8457196,26.0129262 42.6526822,26.1870337 C43.2664907,25.8968545 43.3768879,25.6596645 44.1010935,25.6073061 C44.3748785,24.9758509 44.4613037,24.7045964 44.8984766,24.3765677 C44.8738738,24.3317792 44.7931262,24.2775283 44.8252991,24.232109 C44.8429626,24.2011986 45.0965607,24.1172989 45.1142243,24.0876502 C45.3659299,23.606962 45.1785701,23.5785749 45.6927056,23.3634638 C45.6927056,23.3634638 45.4315374,23.2505462 45.4769579,23.2183742 C45.560229,23.1546609 45.7438037,23.2682093 45.8384299,23.2183742 C45.8605093,23.2057577 45.901514,22.8909763 45.9116075,22.8569118 C46.1942243,22.8127541 46.3002056,22.8934996 46.4900888,22.712453 C46.5676822,22.6354925 46.5014439,22.4380444 46.5632664,22.3509907 C46.6206729,22.2607828 46.8679626,22.2317649 46.9241075,22.1327254 C47.1259766,21.7618007 46.9625888,21.5447971 47.2142944,21.3366251 C47.3890374,21.1877505 47.6293879,21.2710194 47.7927757,21.1189907 C47.827472,21.085557 47.7732196,20.9499297 47.7927757,20.9026179 C47.8527056,20.7436502 48.6828925,20.1311197 48.8790841,19.8888832 C49.0954626,19.9273634 49.1389907,19.9431341 49.3850187,19.9620588 C49.4178224,19.8396789 49.332028,19.6498007 49.3850187,19.5274208 L49.4575654,19.4536143 C49.9149252,19.2940158 49.8373318,18.905428 50.0360467,18.8026036 C50.2480093,18.6903168 50.5981262,18.8070194 50.6889673,18.8026036 C50.8422617,18.3868903 50.9621215,18.3149763 51.3399953,18.1515928 C51.0163738,17.8998939 51.6875888,17.2040946 51.8465607,16.9214853 C52.012472,17.0407111 52.0036402,17.0344029 52.2086636,17.1378581 L52.3531262,16.8489405 C52.4673084,16.369514 52.3323084,16.4294423 52.7871449,16.2692129 C52.7158598,15.6932703 53.0476822,15.4775283 53.7289907,15.3286538 C53.7523318,15.1772559 53.6684299,14.9596215 53.7289907,14.8221018 C53.7630561,14.7426179 54.0217009,14.7382022 54.0910935,14.6770122 C54.2601589,14.5218294 54.5982897,13.6639082 54.5982897,13.6639082 L54.5251121,13.5188186 C54.6866075,13.4323957 54.7698785,13.4033778 54.8096215,13.3977004 C54.8165607,13.3566968 54.8493645,13.2664889 54.9603925,13.0841806 C54.9603925,13.0841806 55.1067477,12.9794638 55.176771,12.932152 L55.176771,12.8678079 C55.2758131,12.7858007 55.6675654,12.6779297 55.6845981,12.6501735 C55.8448318,12.3290839 55.6379159,12.1461448 55.6114206,11.9979011 C55.6448551,11.9688832 55.7905794,12.0187183 55.8277991,11.9979011 C55.8467243,11.9871771 55.8126589,11.8111771 55.8277991,11.7815283 C55.959014,11.5077505 56.4119579,11.3267039 56.6251822,11.2749763 C56.5797617,11.1412416 56.6624019,11.1475498 56.697729,11.0573419 C56.6377991,11.0075068 56.4075421,10.7677935 56.4075421,10.7677935 C56.6491542,10.830876 57.2831495,9.41972186 57.4213037,8.95858925 C57.2806262,8.88162867 57.2629626,8.96742079 57.2036636,8.81413047 C57.6042477,8.84062509 58.1486636,8.85828817 58.0004159,8.23440287 L57.9278692,8.08994409 C58.0748551,7.94170036 58.547986,7.73857491 58.6520748,7.58276129 C58.9977757,7.06106953 58.7536402,5.85997993 58.7246215,5.33828817 C58.6962336,4.87904803 58.9435234,3.94542796 58.8684533,3.67354265 C58.8350187,3.55873262 58.5252757,3.38020932 58.5063505,3.31208029 C58.404785,2.95187957 58.742285,2.75064659 58.4344346,2.58852473 C58.3164673,2.52481147 58.0590841,2.45731326 58.0004159,2.44406595 C57.9367009,1.89209462 57.932285,1.77791541 57.4925888,1.71987957 C57.6105561,1.41834552 57.5973084,1.35778638 57.710229,1.14015197 C57.170229,0.937026523 57.3733598,0.726331183 57.130486,0.561686022 C57.0043178,0.472108961 57.0093645,0.644324014 56.9141075,0.6336 C56.8018178,0.620352688 56.5930093,0.368653763 56.4788271,0.344682437 C55.9627991,0.227979928 55.2871682,0.201485305 54.7427523,0.27150681 C54.0860467,0.352883154 53.1561869,0.762918996 52.4256729,1.06823799 C52.2263271,1.14898351 51.8251121,1.5344172 51.6301822,1.57415914 C51.3986636,1.61831685 51.3191776,1.42843871 51.0498084,1.50224516 C50.6612103,1.60822366 49.9578224,3.04902652 49.530743,3.31208029 C49.3692477,3.40859642 49.2348785,3.28747814 49.1686402,3.31208029 C48.8923318,3.40859642 48.9276589,3.79403011 48.7333598,3.96435269 C48.5523084,4.11764301 48.2854626,4.04005161 48.0823318,4.18072545 C47.9561636,4.26399427 47.9031729,4.50875412 47.7927757,4.61536344 C47.6274953,4.76549964 47.3909299,4.75162151 47.2142944,4.90491183 C46.9714206,5.1111914 46.9449252,5.56475412 46.7064673,5.77355699 C46.4856729,5.96154265 46.207472,5.96154265 45.9835234,6.13565018 C45.5583364,6.46115556 45.2315607,7.01249606 44.8252991,7.36512688 C44.7413972,7.43641004 44.5149252,7.49696918 44.4631963,7.58276129 C44.4202991,7.6502595 44.4430093,7.93286882 44.317472,8.08994409 C44.1805794,8.25711254 43.6595047,8.4760086 43.594528,8.66841004 C43.5579393,8.76303369 43.646257,8.95101935 43.594528,9.03050323 C43.499271,9.16613047 43.3680561,8.99959283 43.2330561,9.10304803 C43.1958364,9.12765018 43.189528,9.41530609 43.1605093,9.46514122 C42.9882897,9.738919 42.4495514,9.88274695 42.2186636,10.1167828 C42.0521215,10.2820588 42.1536869,10.4877075 42.0010234,10.6952487 C41.8862103,10.8498007 41.7228224,10.7185892 41.5676355,10.8409692 C41.5329393,10.8649405 41.5840374,11.0119226 41.5676355,11.0573419 C41.4831028,11.272453 40.8970514,11.4238509 40.771514,11.6370695 C40.6611168,11.8181161 40.7670981,11.9051699 40.6983364,11.9979011 C40.6144346,12.109557 40.5816308,12.048367 40.4094112,12.0704459 C40.2460234,12.5599656 39.6940374,12.9371986 40.1930327,13.2286394 C39.731257,13.2904602 39.572285,13.4374423 39.1060935,13.4462738 C38.9654159,13.7377147 39.0026355,13.9982452 38.8171682,14.2436358 C38.6695514,14.4309907 38.5080561,14.3060875 38.3093411,14.4593778 C38.1081028,14.6145606 38.1604626,14.8801376 38.0204159,15.1110194 C37.7573551,15.5343025 37.1877056,15.9127971 36.9341075,16.3417577 C36.8874252,16.4193491 36.7309766,17.1977864 36.7170981,17.2110337 C36.6767243,17.2469907 36.4174486,17.2110337 36.3556262,17.2110337 C36.1834065,17.6103455 36.2237804,17.7264172 35.7771449,17.7894996 C35.7493879,17.9207111 35.812472,17.9617147 35.8484299,18.0784172 C35.542472,18.3080373 35.4364907,18.5004387 35.1974019,18.8026036 C35.0876355,18.9363384 34.6794813,19.0927828 34.6176589,19.2378724 C34.5091542,19.4838939 34.6769579,19.7355928 34.7633832,20.1058867 C34.5779159,20.1740158 34.4454393,20.1872631 34.2555561,20.2509763 C34.2555561,20.2730552 34.2694346,20.4610409 34.2555561,20.4686108 C34.1104626,20.5253849 33.8259533,20.2686394 33.6770748,20.6849835 C33.5521682,21.0249978 33.707986,21.2912057 33.7496215,21.5542595 C33.0777757,21.7504459 32.8796916,21.6419441 32.7364907,22.4229047 C32.6702523,22.4247971 32.389528,22.4954495 32.3012103,22.4954495 C32.2949019,22.5351914 32.3012103,23.0739154 32.3012103,23.0739154 C32.3012103,23.0739154 31.9592944,23.4044674 31.9391075,23.4360086 C31.9391075,23.4360086 31.682986,23.8346896 32.012285,23.725557 C31.996514,23.7886394 31.897472,24.1368545 31.9391075,24.160195 C31.1026121,23.7438509 30.4963738,25.6009978 30.0579393,26.3321233 C30.0251355,26.3781735 29.792986,26.401514 29.7677523,26.4765821 C29.7330561,26.5648975 29.8125421,26.7636072 29.7677523,26.8386753 C29.689528,26.9579011 29.5103692,26.8885104 29.4062804,26.9831341 C29.3103925,27.0651412 29.0132664,27.619005 28.9716308,27.7073204 C28.7520981,28.1324961 28.8467243,28.456109 29.1160935,28.7210552 C28.6656729,28.5942595 28.5079626,28.6264315 28.2474252,29.0818867 C27.8588271,29.7606538 27.6733598,30.4324817 27.3068411,31.1819011 C27.1680561,31.4600946 26.826771,31.7275642 26.7270981,32.0505462 C26.6318411,32.3533419 26.759271,32.6037792 26.6558131,32.9185606 C26.5977757,33.0819441 26.0281262,33.4894566 26.0041542,33.4976573 C26.3088505,33.3740158 26.4236636,33.3595068 26.6558131,33.2087398 C26.7088037,33.1702595 26.8236168,33.0131842 26.8715607,32.9911054 C27.2494346,32.8144746 26.9213972,33.1368258 27.0892009,33.2087398 C26.8015374,33.3235498 26.2659533,33.4913491 26.799014,33.642747 C26.4255561,33.9007541 26.1341075,34.1385749 25.7133364,34.3669333 C25.7133364,34.4117219 25.7410935,34.6293563 25.7133364,34.6558509 C25.6710701,34.6924387 25.4124252,34.6558509 25.3524953,34.6558509 C25.2685935,34.8438366 25.302028,34.8804244 25.206771,35.0179441 C25.1430561,34.9958652 25.0080561,34.9346753 24.9903925,34.9453993 C25.0812336,35.0223599 24.881257,35.2134996 25.1342243,35.1630337 C25.1140374,35.1882667 24.9828224,35.3756215 24.9903925,35.3806681 C24.8118645,35.3516502 24.7866308,35.3150624 24.6282897,35.2355785 C24.555743,35.3977004 24.5645748,35.2961376 24.4106495,35.3806681 C24.4106495,35.4405964 24.4497617,35.776195 24.4106495,35.8153061 C24.3481963,35.8714495 24.2661869,35.7421305 24.2661869,35.7421305 C24.0346682,35.7421305 23.1691542,36.4202667 22.9635,36.5382308 C22.8587804,36.5943742 22.6922383,36.5338151 22.6013972,36.6101448 C22.5553458,36.6473634 22.5881495,36.8618437 22.5288505,36.900324 C22.2979626,37.0473061 22.0714907,36.9634065 21.8771916,37.1179584 C21.7686869,37.2018581 21.4999486,37.6333419 21.5150888,37.6232487 L21.5150888,37.7696 C21.6147617,37.7935713 21.9503692,37.9140588 21.9503692,37.9140588 C21.5989907,38.0736573 20.0509065,38.5928258 19.9234766,38.7827039 C19.9077056,38.800367 19.8414673,39.2217577 19.7777523,39.3611699 C18.5987103,39.3908186 19.2055794,39.7232631 18.5476121,40.0121806 C18.1741542,40.1736717 18.0864673,40.1017577 17.8234065,40.301729 C17.9539907,40.5332416 17.9142477,40.5874925 18.039785,40.8095427 C16.8386636,40.9861735 16.9547383,41.6485391 16.1586168,41.7501018 C16.2513505,42.0327111 16.2103458,42.0503742 16.3030794,42.3285677 C16.1352757,42.3992201 16.0084766,42.3216287 15.8690607,42.4011125 C15.8097617,42.4313921 15.6968411,42.7480659 15.6507897,42.7638366 C15.5744579,42.7871771 14.7631963,42.6023455 15.1448551,42.9082953 C15.2180327,42.966962 15.2180327,42.9082953 15.2180327,42.9082953 C15.542285,43.0199513 15.8558131,43.0155355 15.4344112,43.2703885 C15.069785,43.4880229 14.5840374,43.4722523 14.204271,43.6324817 C15.0678925,44.1346179 13.823243,43.9933133 13.7696215,43.9933133 L13.6964439,43.9933133 C13.4712336,44.0784746 13.3255093,44.5812416 13.1179626,44.7187613 C13.1028224,44.7275928 12.0934766,45.2089118 12.0316542,45.2253133 C11.8594346,45.2650552 11.6134065,45.1590767 11.4531729,45.2253133 C11.3200654,45.2751484 11.5566308,45.5274781 11.3074486,45.6593204 C11.4165841,45.6460731 11.5610467,45.5533419 11.6695514,45.5148616 C11.3516075,46.1393778 11.5793411,46.2718509 10.6564206,46.5998796 C10.8463037,46.5998796 10.6564206,45.8769548 10.6564206,45.8769548 C10.5718879,45.8132416 10.622986,45.7709763 10.583243,45.6593204 C10.4438271,45.7135713 10.0993879,45.9400373 10.0047617,45.948238 C9.54550935,45.98041 9.89688785,45.4826896 9.20864019,46.0945892 C8.73424766,46.5128258 8.27247196,47.1884387 7.76149065,47.5417004 C7.79681776,47.6628186 7.86305607,47.7063455 7.83340654,47.8306179 C7.45111682,47.8968545 7.48770561,47.8419728 7.61576636,47.9025319 C7.75707477,47.9687685 7.61135047,48.0823168 7.76149065,48.1201663 C7.76149065,48.1201663 7.63973832,48.3611412 7.62018224,48.401514 C7.66181776,48.4645964 7.76149065,48.6279799 7.76149065,48.6279799 C7.78104673,48.7516215 7.67064953,48.8247971 7.61576636,48.9175283 C8.23399065,48.9711484 8.12359346,49.1767971 7.90469159,49.6410839 C7.69525234,49.5552918 7.91036916,49.9438796 7.97786916,49.7855427 C8.41504206,49.9823599 8.33555607,50.1293419 8.12359346,50.5822738 C8.35511215,50.7847685 8.37845327,50.7033921 8.55761215,50.8711914 C8.55761215,50.8711914 8.50588318,50.994833 8.41251869,50.9437362 C8.40621028,50.9576143 8.33997196,51.1582165 8.33997196,51.1607398 C8.50083645,51.2200373 8.6995514,51.2850122 8.7746215,51.3064602 C8.7746215,51.3064602 8.62006542,51.4622738 8.70207477,51.5222022 C8.89195794,51.6672918 9.09950467,51.5890695 9.3531028,51.6672918 C9.43952804,51.4786753 9.45719159,51.2686108 9.4988271,51.1607398 C10.2173551,51.0787326 10.3037804,51.1651556 10.3668645,50.5822738 C10.4703224,50.5866896 10.5763037,50.6516645 10.583243,50.653557 C10.4305794,50.5955211 10.4375187,50.937428 10.8021449,50.8711914 C10.9983364,50.8352344 11.9010701,50.1646681 12.1048318,50.0025462 C12.1004159,49.9937147 12.0070514,49.8688115 12.0316542,49.8580875 C12.2991308,49.7338151 12.369785,49.8662882 12.5382196,49.7129978 C12.6524019,49.608281 12.5060467,49.5231197 12.5382196,49.4959943 C12.3350888,49.5388903 12.3186869,49.5710624 12.1048318,49.5685391 C12.1218645,49.5092416 12.1773785,49.3509047 12.1773785,49.3509047 C12.4347617,49.3900158 12.552729,49.4713921 12.8290374,49.4228186 C13.1223785,49.3717219 13.1513972,49.0563097 13.3343411,48.9175283 C13.7980093,48.5548043 14.4099252,48.4797362 14.8559299,48.1201663 C14.8975654,48.0848401 14.8843178,47.86279 14.927215,47.8306179 C15.1082664,47.6905749 15.3303224,47.7492416 15.5069579,47.6136143 C15.7492009,47.4231054 15.8936636,47.0622738 16.1586168,46.8906896 C16.3680561,46.7493849 16.6531963,46.8238222 16.8828224,46.6730552 C17.047472,46.558876 17.1376822,46.1419011 17.3162103,46.0214136 C17.5862103,45.8384746 17.8631495,45.8561376 18.1129626,45.6593204 C18.6359299,45.2410839 18.6624252,44.9010695 19.2718178,44.5743025 C19.2718178,44.5743025 19.2573084,44.2166251 19.2718178,44.1390337 C19.4837804,44.1724674 19.3733832,44.2702452 19.6339206,44.2841233 C19.6780794,44.2841233 19.4881963,43.9970982 19.4881963,43.9933133 C19.902028,43.8387613 19.997285,43.6779011 20.2849486,43.4880229 C20.6211869,43.261557 21.0488972,43.2792201 21.3693645,43.0527541 L21.732729,42.7638366 C21.7567009,42.7095857 21.6892009,42.507091 21.732729,42.4742882 C21.8614206,42.3638939 22.0153458,42.4257147 22.1667477,42.3285677 C22.5597617,42.0667756 22.4745981,41.7475785 23.1073318,41.605643 C23.0852523,41.5968115 23.1073318,41.3482667 23.1073318,41.3167254 C22.8859065,41.3072631 22.6834065,41.3167254 22.4556729,41.3167254 C22.4714439,41.264367 22.5288505,41.0984602 22.5288505,41.0984602 C22.9748551,41.0366394 23.0896682,41.1009835 23.3975187,41.1716358 C23.4738505,40.962833 23.650486,40.6871627 23.9772617,40.5919082 C24.0599019,40.564152 24.2706028,40.6373276 24.3393645,40.5919082 C24.3765841,40.564152 24.2213972,40.34841 24.1936402,40.301729 C24.635229,40.1219441 24.8604393,39.9901018 25.3524953,39.7964387 C25.3405093,39.8046394 25.3524953,40.0039799 25.3524953,40.0121806 C25.4420748,39.9244961 25.4244112,40.0853563 25.4244112,40.0853563 C25.3638505,40.1282523 25.1720748,40.3092989 25.1342243,40.3749047 L25.0623084,40.6638222 C25.1802757,40.6354351 25.2389439,40.5742452 25.3524953,40.5199943 C25.3215841,40.7622308 25.1007897,41.9311484 25.2799486,42.4742882 L25.5688738,42.5462022 C25.5758131,42.712109 25.6420514,43.0697864 25.6420514,43.1259297 C25.6351121,43.2659728 25.4673084,43.4016 25.4963271,43.4880229 C25.5360701,43.6091412 25.8805093,43.6779011 25.9316075,43.8501161 C26.0192944,44.1592201 25.8205794,44.5597935 25.9316075,44.8632201 C26.0306495,45.1369978 26.5498318,45.0852703 26.799014,45.2253133 C27.084785,45.3830194 27.2185234,45.8857864 27.5232196,46.0214136 C27.7131028,46.1046824 27.7175187,45.8965104 27.8853224,45.948238 C27.8853224,45.948238 27.9559766,46.1639799 27.9585,46.1658724 C29.2996682,46.1658724 30.634528,46.7102738 32.0848318,46.5279656 C32.4734299,46.4774996 32.8468879,46.2977147 33.3875187,46.2377864 C33.3875187,46.2327398 33.4594346,46.0214136 33.4594346,46.0214136 C34.0745047,45.8214423 34.2763738,45.9608545 34.9797617,45.8037792 C35.1873084,45.7564674 35.5336402,45.4151914 35.7039673,45.3691412 C35.8168879,45.3382308 36.0364206,45.4221305 36.137986,45.3691412 C36.2105327,45.3293993 36.3915841,44.902962 36.7902757,44.8632201 C37.6084766,44.7749047 38.2916776,45.0549907 39.0335467,44.9351341 C39.1691776,44.9130552 39.6807897,44.6241376 39.8309299,44.6462165 C39.8637336,44.6506323 40.1331028,44.8878222 40.1930327,44.9351341 C40.2668411,44.6777577 40.3299252,44.5124817 40.4094112,44.2841233 C40.7645748,44.3289118 41.0850421,44.4538151 41.5676355,44.2841233 C41.597285,44.2727685 41.6811869,44.0709047 41.7120981,44.0677505 C41.8975654,44.0242237 42.2123551,44.2103168 42.5807664,44.0677505 C42.7435234,44.001514 42.899972,43.6955642 43.0873318,43.6324817 C43.2709065,43.5675068 43.7364673,43.6955642 44.1010935,43.5605677 C44.1780561,43.530919 44.2909766,43.2338007 44.3900187,43.1984746 C44.6145981,43.1120516 45.5450888,43.3587039 45.8384299,43.2703885 C45.9267477,43.2426323 46.0970748,42.7997935 46.2005327,42.7638366 C46.465486,42.6685821 47.1499486,42.755005 47.4306729,42.6919226 C47.5618879,42.6597505 47.9694112,42.2617004 48.0823318,42.2566538 C48.1548785,42.252238 48.490486,42.4080516 48.6614439,42.4742882 C48.7156963,42.3903885 48.8109533,42.0667756 48.8790841,42.0396502 C49.0866308,41.9532272 49.3850187,42.0875928 49.6032897,42.0396502 C49.7250421,42.0106323 49.9149252,41.7841663 50.0360467,41.7501018 C50.2360234,41.6914351 50.3199252,41.8529262 50.4713271,41.8226466 C50.4732196,41.8207541 50.4713271,41.6233061 50.4713271,41.605643 C50.7646682,41.5217434 51.1709299,41.5381448 51.5576355,41.4611842 C51.5620514,41.4586609 51.7456262,41.2523814 51.774014,41.242919 C52.1468411,41.1079226 52.2654393,41.2933849 52.6439439,41.1716358 C52.838243,41.1079226 53.0975187,40.6329118 53.2956028,40.5919082 C53.6753692,40.5080086 53.9441075,40.7079799 54.4525654,40.5919082 C55.0745748,41.7280229 54.5528692,42.6420875 55.3218645,43.5605677 C55.5451822,43.8267756 55.9135935,43.7838796 56.117986,43.9220301 C56.1987336,43.976281 56.161514,44.0942452 56.1899019,44.2122093 C56.6901589,44.3358509 57.0308131,44.6411699 57.4213037,44.7187613 L59.0854626,45.1527685 C59.361771,45.2145892 59.3321215,44.8140158 59.5926589,44.7906753 C59.7535234,44.7749047 59.5018178,44.9647828 59.6652056,45.0076789 C59.8815841,45.064453 60.0739907,44.9691986 60.3168645,44.9351341 C60.3080327,44.9584746 60.1686168,45.1092416 60.2436869,45.1527685 L60.3894112,45.1527685 L60.9685234,45.0802237 L61.112986,44.7187613 C61.6063037,44.6979441 62.5834766,44.8222165 63.2843411,44.7187613 C63.4180794,44.6979441 63.9492477,44.4462452 64.0817243,44.4285821 C64.3750654,44.3831627 64.7680794,44.5030194 64.9491308,44.5017577 C65.1686636,44.4948186 65.7118178,44.2551054 65.9628925,44.2122093 C66.1691776,44.1724674 66.1546682,44.3333276 66.3249953,44.2841233 C66.3357196,44.2790767 66.3249953,44.0873061 66.3249953,44.0677505 C67.3602056,43.9296 66.9451121,43.645729 67.7008598,43.1984746 C67.8882196,43.4470194 68.0755794,43.7182738 68.4963505,43.5605677 C68.6231495,43.5101018 68.6256729,43.3542882 68.7139907,43.2703885 C68.5215841,43.2407398 68.4553458,43.261557 68.3518879,43.2703885 C68.7915841,43.0805104 69.2085701,42.6534423 69.872215,42.618747 C69.5870748,42.4332846 69.6501589,42.3411842 69.7271215,41.9677362 C69.7914673,41.9677362 69.9643178,42.0018007 70.0166776,41.9677362 C70.0078458,42.1828473 70.0444346,42.4036358 70.0166776,42.7638366 C69.9964907,42.7638366 69.8002991,42.7594208 69.8002991,42.7638366 C70.146,43.0760946 69.5176822,43.4041233 70.0898551,43.7043957 C69.9901822,43.8715642 69.903757,43.9920516 69.8002991,44.2122093 C69.879785,44.249428 70.0696682,44.2122093 70.1624019,44.2122093 C70.4475421,44.7364244 70.1415841,44.3863168 70.6683364,44.6462165 C70.6632897,44.6506323 70.5774953,44.7837362 70.5964206,44.7906753 C70.7276355,44.831048 70.3585935,44.777428 70.1624019,44.7187613 C70.1958364,44.7793204 70.3056028,45.0076789 70.3056028,45.0076789 C70.5705561,45.0278652 71.0235,44.9742452 71.102986,45.0076789 L70.9768178,45.384281 C70.9768178,45.384281 71.5780093,46.0756645 71.5370047,46.0945892 C71.4076822,46.1450552 71.2619579,46.1393778 71.1755327,46.1658724 C71.5931495,46.2522953 71.6051355,46.3689978 71.5370047,46.7443384 C71.6877757,46.6604387 71.8423318,46.6452989 71.9716542,46.5998796 C71.9716542,46.5935713 71.9596682,46.3904459 71.9716542,46.3822452 C71.4518411,45.8876789 72.127472,46.2819441 72.2612103,46.817514 C72.3350187,46.8364387 72.5627523,46.8364387 72.6233131,46.8906896 C72.6460234,46.9102452 72.6088037,47.076152 72.6233131,47.1064315 C72.6750421,47.2445821 73.207472,47.5549477 73.346257,47.6136143 C73.5739907,47.7094996 73.8610234,47.6199226 74.0704626,47.7593348 C74.0950654,47.7744746 74.0704626,48.0072487 74.0704626,48.0488832 C74.2950421,48.1157505 74.3884065,48.1113348 74.6502056,48.1933419 C74.6420047,48.2040659 74.5606262,48.3352774 74.5782897,48.3378007 C74.8445047,48.3737577 74.7492477,48.0936717 75.2299486,48.1933419 C75.2804159,48.2021735 75.0110467,48.3378007 75.0110467,48.3378007 C75.6513505,48.7737004 75.6936168,48.530833 76.3869112,48.4103455 C75.8967477,48.5440803 76.3030093,48.7320659 76.6045514,48.8443527 C76.776771,48.9086968 77.126257,48.9370839 77.2568411,49.0619871 C77.2719813,49.0771269 77.328757,49.3509047 77.328757,49.3509047 C77.8599252,49.5609692 78.1311869,49.1048832 78.559528,49.2783599 C78.5683598,49.281514 78.4302056,49.4713921 78.4138037,49.4959943 C78.4951822,49.5666466 78.5570047,49.6379297 78.6314439,49.7129978 C78.7361636,49.6316215 78.8352056,49.4871627 78.9216308,49.4228186 L80.1713271,49.8845821 L82.0335701,50.0025462 C82.0594346,49.9262165 82.1073785,49.7565247 82.1786636,49.7129978 C82.2890607,49.8170839 82.2467944,49.9167541 82.3243879,50.075091 C83.0284065,50.1160946 83.1167243,50.1772846 83.7702757,50.2201806 C84.2093411,50.2473061 84.8004393,50.0952774 85.2186869,50.2201806 C85.2186869,50.2201806 85.361257,50.5072057 85.3650421,50.5090982 C85.4199252,50.5267613 85.4880561,50.3709477 85.9435234,50.5090982 C85.9605561,50.4264602 85.9435234,50.2290122 86.0160701,50.2201806 C86.0249019,50.2176573 86.5125421,50.3532846 86.739014,50.3646394 C86.6443879,50.3368832 86.9963972,50.2832631 87.0292009,50.2927254 L87.0292009,50.4365534 C87.5351355,50.3961806 87.7843178,50.3192201 88.1148785,50.2201806 C88.2195981,50.4687254 88.263757,50.5665032 88.3325187,50.7267326 C88.6081963,50.6636502 88.9702991,50.6384172 89.272472,50.5090982 C89.272472,50.5090982 89.4251355,50.2353204 89.6352056,50.2201806 C89.8074252,50.20441 90.2067477,50.4914351 90.3594112,50.5090982 C90.693757,50.545686 91.4633832,50.312281 91.9510234,50.3646394 C92.0109533,50.3690552 92.2777991,50.5337004 92.3863037,50.5090982 C92.4878692,50.4851269 92.5206729,50.2353204 92.675229,50.2201806 C92.7521916,50.2107183 93.3906028,50.5217147 93.4726121,50.5090982 C93.5186636,50.5002667 93.7287336,50.1533133 93.7615374,50.147005 C94.1305794,50.0542738 94.0864206,50.3879799 94.4131963,50.2927254 C94.4989907,50.2649692 94.3400187,50.0025462 94.3400187,50.0025462 C94.4176121,49.9735283 94.5368411,49.9956072 94.5563972,49.9306323 C94.7771916,50.006962 94.974014,50.2567685 95.3537804,50.2927254 C95.6628925,50.3217434 95.9720047,50.0996932 96.1505327,50.075091 C96.3139206,50.0498581 96.7624486,50.2201806 96.8021916,50.2201806 C97.0116308,50.2157649 97.4292477,50.0101161 97.5970514,50.0025462 C97.8109065,49.9918222 98.1553458,50.1558366 98.4669813,50.147005 C98.7830327,50.136281 99.4340607,50.0454423 99.7696682,50.0025462 L99.8428458,49.7855427 C99.8825888,49.7741878 100.122939,49.8953061 100.200533,49.9287398 C100.231444,49.9287398 100.321654,49.9287398 100.352565,49.9293706 C101.00864,49.8303312 101.332893,49.6934423 102.012939,49.7855427 L102.086117,49.4959943 C102.267168,49.4732846 102.410369,49.8246538 102.664598,49.7855427 C102.737145,49.7716645 102.593944,49.4959943 102.593944,49.4959943 C103.238664,49.665686 103.384388,49.5710624 103.750907,49.2064459 C103.836701,49.2537577 104.027215,49.1566108 104.113009,49.2064459 C104.12815,49.2152774 104.113009,49.4606681 104.113009,49.4959943 C104.114902,49.4959943 104.329388,49.5685391 104.329388,49.5685391 C104.400042,49.5300588 104.430953,49.2600659 104.618944,49.2064459 L105.561421,49.2783599 C105.618827,49.281514 105.751304,49.4436358 105.923523,49.4228186 L106.066724,49.2064459 C106.20614,49.1679656 106.740463,49.2064459 107.080486,49.2064459 C107.080486,49.1654423 107.058407,48.8531842 107.080486,48.8443527 C107.183944,48.7970409 107.369411,48.9175283 107.369411,48.9175283 C107.369411,48.9175283 107.451421,49.1566108 107.804692,49.1345319 C108.308103,49.0985749 108.574949,48.8355211 109.107379,48.9175283 C109.026,48.8014566 108.935159,48.6658294 108.891,48.5548043 C108.930743,48.5320946 109.012752,48.5812989 108.964178,48.4822595 C109.073944,48.5232631 109.277706,48.4822595 109.396935,48.4822595 C109.396935,48.530833 109.370439,48.8292129 109.396935,48.8443527 C109.463173,48.7926251 109.615206,48.8853563 109.68586,48.8443527 C109.703523,48.8336287 109.68586,48.5894996 109.68586,48.5548043 C109.975416,48.6481663 110.306607,48.7837935 110.483243,48.7718079 C110.902752,48.7383742 110.914107,48.3832201 111.134271,48.3378007 C111.597939,48.2381305 111.094528,48.5686824 111.78593,48.1933419 C112.379551,48.5838222 112.346748,48.3176143 112.872238,48.2658867 C113.205322,48.2318222 113.39079,48.4437792 113.812822,48.4103455 C114.508009,48.3523097 114.700416,48.1088115 115.477612,48.0488832 L115.477612,47.8306179 C115.776,47.7700588 115.71607,48.0072487 115.912262,47.9750767 L115.985439,47.7593348 C116.537425,47.7139154 116.615019,47.7561806 116.926023,47.9025319 C116.948103,47.8564817 117.027589,47.6237075 117.069855,47.6136143 C117.773874,47.4413993 118.31072,47.7536573 118.663991,47.6861591 L118.663991,47.5417004 C118.820439,47.5461161 119.061421,47.5347613 119.242472,47.5417004 L119.388196,47.252152 C119.690369,47.1884387 119.710556,47.4596932 119.750299,47.4691556 C119.884668,47.4988043 120.571654,47.4357219 120.834084,47.3959799 C121.494575,47.2975713 122.78843,47.1619441 123.369435,46.8906896 C123.441981,46.8541018 123.539131,46.5412129 123.585182,46.5279656 C123.921421,46.4245104 124.261444,46.7071197 124.455112,46.817514 C124.388874,46.4793921 124.303079,46.3582738 124.887869,46.2377864 C124.890393,46.2655427 124.970509,46.7336143 124.961047,46.6730552 C125.107402,46.677471 125.219061,46.8395928 125.539528,46.7443384 C125.577379,46.7336143 125.396327,46.5998796 125.396327,46.5998796 C125.581164,46.5645534 125.636678,46.5645534 125.75843,46.5279656 C125.71364,46.4421735 125.612075,46.2377864 125.612075,46.2377864 C126.138196,46.0624172 126.261841,46.5071484 126.336911,46.5279656 C126.482005,46.5658151 126.692075,46.5279656 126.844107,46.5279656 C126.796164,46.4964244 126.957028,46.4699297 126.844107,46.3822452 C126.24607,45.9242667 127.579668,46.2541878 128.00107,46.2377864 C127.85093,46.0977434 127.903921,46.1299154 127.855977,45.948238 C127.97079,45.948238 128.115883,45.9829333 128.218079,45.948238 C128.218079,46.009428 128.178336,46.3450265 128.218079,46.3822452 C128.268547,46.3601663 128.385883,46.3822452 128.43635,46.3822452 L128.363804,45.8769548 C128.363804,45.8769548 128.646421,46.0977434 128.725907,46.2377864 C128.600369,46.2699584 128.68364,46.4554208 128.871,46.3822452 C129.174435,46.2630194 129.05079,46.1702882 129.450112,46.3822452 C129.653243,46.0844961 129.761117,45.9356215 129.882869,45.7312344 C129.955416,45.8681233 130.5585,46.3191627 131.187449,46.0945892 C131.187449,46.0945892 131.726818,45.4536717 131.76593,45.441686 C132.377846,45.229729 132.976514,45.4637649 133.503897,45.2253133 C133.607355,45.3855427 133.634481,45.5123384 133.720276,45.6593204 L133.678009,42.3468616 Z"/>
    </g>
  </g>
</svg>
